<?xml version="1.0" encoding="UTF-8"?>
<!-- Generator: visioncortex VTracer 0.6.3 -->
<svg version="1.1" xmlns="http://www.w3.org/2000/svg" width="1280" height="1244">
<path d="M0 0 C0 0.66 0 1.32 0 2 C0.87 1.8 1.75 1.61 2.64 1.4 C13.46 0.11 25.64 8.27 33.88 14.62 C35.26 15.74 36.63 16.87 38 18 C39.23 18.94 39.23 18.94 40.48 19.89 C52.78 30.17 61.12 47.16 63 63 C63.5 72.33 63.78 82.01 61 91 C60.63 92.21 60.26 93.42 59.88 94.66 C56.78 104.1 52.32 111.49 46.28 119.32 C44.21 122.04 42.3 124.86 40.38 127.69 C37.08 132.46 33.72 137.18 30.29 141.86 C28.5 144.31 26.73 146.77 24.96 149.23 C19.19 157.27 13.34 165.23 7.27 173.05 C1.94 179.98 -3.11 187.12 -8.11 194.3 C-11.56 199.22 -15.06 204.11 -18.56 208.99 C-19.56 210.39 -20.56 211.78 -21.56 213.18 C-27.04 220.83 -32.52 228.46 -38.31 235.88 C-42.33 241.02 -45.92 246.31 -49.41 251.83 C-49.93 252.55 -50.46 253.26 -51 254 C-51.66 254 -52.32 254 -53 254 C-53.28 254.57 -53.56 255.15 -53.86 255.74 C-58.39 264.7 -64.29 272.44 -70.42 280.35 C-77.97 290.11 -85.45 299.97 -92.19 310.31 C-100.58 323.09 -110.03 336.01 -124 343 C-124.75 343.41 -125.5 343.82 -126.27 344.24 C-135.02 348.91 -144.09 351.46 -154 352 C-155.3 352.08 -155.3 352.08 -156.63 352.16 C-176.65 352.79 -192.78 346.79 -208 334 C-208 333.34 -208 332.68 -208 332 C-208.87 331.64 -208.87 331.64 -209.76 331.28 C-220.05 325.4 -226.84 309.91 -230 299 C-230.45 296.66 -230.74 294.37 -231 292 C-231.33 291.67 -231.66 291.34 -232 291 C-233.15 277.86 -233.12 263.45 -226 252 C-225.14 250.17 -224.28 248.34 -223.44 246.5 C-220.49 240.55 -216.78 235.54 -212.67 230.39 C-209.83 226.82 -207.15 223.15 -204.5 219.44 C-204.08 218.85 -203.66 218.27 -203.22 217.67 C-201.22 214.86 -199.53 212.08 -198 209 C-197.28 208.32 -196.56 207.64 -195.81 206.94 C-193.31 204.55 -191.62 201.94 -189.81 199 C-186.84 194.2 -183.59 189.77 -180.11 185.33 C-174.18 177.72 -168.61 169.84 -163 162 C-162.07 160.7 -161.13 159.39 -160.2 158.09 C-159.34 156.89 -158.48 155.7 -157.62 154.5 C-157.22 153.94 -156.82 153.38 -156.4 152.8 C-153.32 148.48 -150.32 144.11 -147.38 139.7 C-146.92 139.14 -146.47 138.58 -146 138 C-145.34 138 -144.68 138 -144 138 C-143.77 137.31 -143.54 136.62 -143.3 135.91 C-141.72 132.37 -139.57 129.45 -137.25 126.38 C-136.26 125.04 -135.26 123.71 -134.27 122.37 C-133.74 121.66 -133.21 120.96 -132.67 120.23 C-129.74 116.31 -126.84 112.37 -123.94 108.44 C-123.05 107.23 -123.05 107.23 -122.14 106 C-115.89 97.52 -109.75 88.97 -103.75 80.31 C-98.61 72.95 -93.22 65.77 -87.88 58.55 C-86.03 56.04 -84.18 53.52 -82.33 51 C-69.83 33.97 -69.83 33.97 -64.13 26.72 C-62.87 25.11 -61.63 23.47 -60.46 21.78 C-52.31 10.82 -33.51 2.46 -20.26 0.3 C-13.52 -0.32 -6.76 -0.14 0 0 Z " fill="#009EFB" transform="translate(507,779)"/>
<path d="M0 0 C14.82 13.49 24.45 30.36 25.44 50.59 C25.86 64.17 24.92 79.36 17.18 91.04 C16.63 91.89 16.07 92.73 15.5 93.6 C-2.43 119.53 -28.94 126.39 -57.69 135.08 C-62.48 136.55 -67.2 138.14 -71.94 139.74 C-77.15 141.5 -82.39 143.17 -87.63 144.85 C-88.69 145.19 -89.75 145.53 -90.83 145.88 C-96.5 147.69 -102.17 149.46 -107.86 151.19 C-109.01 151.54 -110.17 151.9 -111.36 152.26 C-113.56 152.93 -115.76 153.59 -117.97 154.25 C-122.52 155.63 -126.97 157.05 -131.35 158.9 C-140.29 162.58 -149.71 165.05 -158.95 167.83 C-171.44 171.55 -171.44 171.55 -183.62 176.15 C-187.79 177.84 -192.09 179.14 -196.38 180.48 C-197.33 180.78 -198.29 181.08 -199.27 181.39 C-205.86 183.46 -212.48 185.42 -219.11 187.34 C-223.84 188.72 -228.46 190.3 -233.07 192.02 C-244.38 196.21 -255.89 199.53 -267.52 202.72 C-268.56 203.01 -269.61 203.29 -270.68 203.59 C-271.62 203.84 -272.57 204.1 -273.54 204.36 C-275.82 204.97 -275.82 204.97 -277.82 206.04 C-298.26 207.96 -318.03 205.22 -334.32 192.01 C-336.91 189.77 -339.37 187.44 -341.82 185.04 C-342.59 184.3 -343.37 183.56 -344.17 182.8 C-356.95 169.75 -363.12 151.76 -363.13 133.76 C-362.85 115.9 -356.69 100.5 -344.82 87.04 C-344.1 86.22 -343.39 85.4 -342.65 84.55 C-331.17 72.21 -316.67 67.15 -301.07 62.04 C-299.23 61.43 -297.4 60.81 -295.56 60.2 C-284.79 56.6 -273.97 53.15 -263.09 49.88 C-254.95 47.42 -246.88 44.76 -238.82 42.04 C-228.1 38.43 -217.34 34.98 -206.5 31.73 C-201.81 30.31 -197.17 28.84 -192.58 27.13 C-186.16 24.75 -179.63 22.74 -173.09 20.72 C-158.1 16.09 -143.2 11.23 -128.34 6.19 C-120.5 3.54 -112.65 1.04 -104.69 -1.21 C-100.02 -2.54 -95.53 -4.14 -91.01 -5.9 C-60.3 -17.65 -27.25 -23.68 0 0 Z " fill="#009EFB" transform="translate(1158.8193359375,447.958984375)"/>
<path d="M0 0 C1.18 0.11 1.18 0.11 2.39 0.22 C8.05 0.86 13.03 2.33 18.38 4.25 C20.7 5.03 23.03 5.81 25.36 6.59 C26.64 7.02 27.92 7.45 29.2 7.87 C29.84 8.09 30.49 8.31 31.16 8.53 C32.46 8.97 33.77 9.4 35.07 9.84 C42.75 12.42 50.44 14.91 58.18 17.27 C63.81 19 69.4 20.81 75 22.62 C76.33 23.06 77.66 23.49 78.99 23.92 C95.94 29.39 112.86 34.91 129.79 40.43 C137.99 43.1 146.18 45.77 154.38 48.44 C157.05 49.31 159.71 50.18 162.38 51.05 C171.48 54.01 180.58 56.97 189.69 59.91 C192.43 60.8 195.18 61.69 197.92 62.58 C199.66 63.15 201.4 63.71 203.14 64.27 C205.55 65.05 207.95 65.83 210.36 66.61 C211.05 66.83 211.75 67.05 212.47 67.29 C215.86 68.39 219.22 69.55 222.55 70.83 C225.53 71.96 228.48 72.89 231.57 73.67 C251.79 79.04 271.26 85.32 286.38 100.25 C287.08 100.9 287.79 101.55 288.52 102.21 C300.73 113.65 306.93 129.01 307.75 145.59 C308.23 167.77 304 184.47 288.64 200.96 C282.17 207.68 275.17 213.89 266.38 217.25 C265.25 217.69 264.13 218.14 262.98 218.6 C242.04 226.19 222.07 222.64 201.63 215.39 C197.29 213.87 192.91 212.5 188.52 211.13 C179.73 208.38 171.01 205.46 162.35 202.33 C156.83 200.36 151.24 198.69 145.61 197.07 C136.12 194.33 126.79 191.14 117.5 187.75 C111.71 185.66 105.88 183.89 99.98 182.2 C93.32 180.27 86.75 178.1 80.18 175.88 C79.45 175.63 78.71 175.38 77.95 175.12 C76.01 174.47 74.07 173.81 72.13 173.14 C61.38 169.52 50.55 166.23 39.69 162.98 C24.74 158.5 24.74 158.5 19.45 156.27 C12.52 153.36 5.24 151.42 -1.96 149.28 C-29.79 140.95 -55.32 132.65 -71.83 106.71 C-75.9 98.85 -80.04 89.24 -79.62 80.25 C-79.95 79.92 -80.28 79.59 -80.62 79.25 C-81.74 65.03 -79.48 49.95 -72.62 37.25 C-71.64 36.75 -71.64 36.75 -70.62 36.25 C-70.13 35.14 -69.64 34.02 -69.12 32.88 C-61.83 17.73 -46.27 8.41 -31 2.95 C-20.34 -0.28 -11.02 -1.06 0 0 Z M-79.62 63.25 C-78.62 65.25 -78.62 65.25 -78.62 65.25 Z " fill="#009EFB" transform="translate(174.625,431.75)"/>
<path d="M0 0 C0.81 0 1.62 0 2.45 0 C8.36 0.05 8.36 0.05 9.5 1.19 C10.58 1.16 10.58 1.16 11.69 1.12 C15.01 1.2 17.37 2.04 20.5 3.19 C21.19 3.39 21.89 3.6 22.6 3.81 C28.21 5.51 32.69 7.87 37.5 11.19 C38.76 12.03 38.76 12.03 40.05 12.89 C53.11 21.78 61.44 34.65 70.54 47.31 C74.18 52.38 77.87 57.39 81.62 62.38 C97.58 83.57 97.58 83.57 103.84 93.66 C106.11 97.12 108.72 100.27 111.34 103.48 C113.78 106.53 116.06 109.69 118.31 112.88 C121.86 117.88 125.43 122.87 129.06 127.81 C129.52 128.44 129.98 129.06 130.45 129.71 C133.38 133.68 136.34 137.63 139.31 141.56 C141.75 144.8 144.11 148.04 146.31 151.44 C150.05 157.16 154.23 162.55 158.34 168 C164.93 176.73 171.41 185.55 177.69 194.5 C178.79 196.07 178.79 196.07 179.92 197.68 C181.5 200.19 181.5 200.19 181.5 202.19 C182.16 202.19 182.82 202.19 183.5 202.19 C186.5 206.57 186.5 206.57 186.5 209.19 C187.49 209.52 188.48 209.85 189.5 210.19 C190.87 212.09 190.87 212.09 192.38 214.69 C195.63 220 199.25 224.9 203.06 229.81 C215.62 246.06 223.1 260.08 222.88 281.19 C222.89 282.27 222.9 283.36 222.91 284.48 C222.84 302.76 215.4 319.25 202.5 332.19 C185.8 346.78 168.88 353.53 146.5 352.19 C128.79 350.74 111.39 343.54 99.17 330.22 C93.36 323.14 87.78 315.92 82.85 308.19 C81.49 306.11 81.49 306.11 79.73 303.98 C76.76 300.25 74.01 296.39 71.25 292.5 C70.7 291.73 70.14 290.96 69.57 290.16 C69.05 289.42 68.52 288.69 67.98 287.93 C67.51 287.26 67.03 286.59 66.54 285.9 C65.5 284.19 65.5 284.19 65.5 282.19 C64.84 282.19 64.18 282.19 63.5 282.19 C62.33 280.83 62.33 280.83 61.03 278.93 C60.55 278.23 60.06 277.52 59.57 276.8 C59.05 276.04 58.53 275.28 58 274.5 C54.19 268.99 50.33 263.57 46.19 258.31 C42.53 253.63 39.32 248.84 36.2 243.79 C33.91 240.29 31.3 237.12 28.65 233.89 C24.87 229.14 21.43 224.15 17.93 219.2 C15.27 215.45 12.57 211.73 9.88 208 C9.32 207.23 8.76 206.46 8.18 205.66 C5.23 201.58 2.28 197.51 -0.69 193.44 C-3.11 190.11 -5.51 186.77 -7.9 183.41 C-15.28 173.04 -22.86 162.81 -30.43 152.58 C-31.71 150.85 -32.99 149.11 -34.27 147.38 C-35.48 145.75 -36.68 144.13 -37.88 142.51 C-40.21 139.36 -42.48 136.21 -44.65 132.96 C-46.42 130.21 -46.42 130.21 -48.34 127.89 C-51.43 124.02 -54.2 119.95 -57 115.88 C-57.57 115.06 -58.14 114.24 -58.72 113.4 C-65.65 103.31 -70.49 93.51 -71.29 81.16 C-71.29 79.19 -71.29 79.19 -72.5 78.19 C-73.85 61.48 -68.12 42.15 -57.75 28.81 C-56.68 27.59 -55.6 26.38 -54.5 25.19 C-53.88 24.38 -53.25 23.56 -52.61 22.73 C-46.13 14.93 -37.39 10.36 -28.31 6.25 C-27.48 5.87 -26.65 5.5 -25.79 5.11 C-17.19 1.36 -9.36 -0.15 0 0 Z M-71.5 65.19 C-70.5 69.19 -70.5 69.19 -70.5 69.19 Z " fill="#009EFB" transform="translate(780.5,778.8125)"/>
<path d="M0 0 C1.09 0.23 2.18 0.46 3.3 0.69 C22.01 4.65 36.36 14.92 48 30 C48 30.66 48 31.32 48 32 C48.66 32 49.32 32 50 32 C51.11 34.14 52.18 36.28 53.25 38.44 C53.7 39.3 53.7 39.3 54.16 40.17 C62.02 56.3 61.55 73.58 61.43 91.09 C61.42 93.79 61.42 96.5 61.42 99.2 C61.41 105.74 61.38 112.29 61.35 118.83 C61.32 124.16 61.3 129.48 61.28 134.81 C61.28 135.57 61.28 136.33 61.28 137.11 C61.27 138.66 61.27 140.21 61.26 141.76 C61.22 156.23 61.16 170.69 61.08 185.16 C61.02 197.54 60.98 209.92 60.95 222.3 C60.92 236.73 60.87 251.15 60.81 265.57 C60.8 267.11 60.79 268.65 60.79 270.19 C60.78 270.95 60.78 271.71 60.78 272.49 C60.75 277.8 60.74 283.11 60.73 288.42 C60.72 294.91 60.69 301.39 60.65 307.87 C60.62 311.17 60.61 314.47 60.61 317.77 C60.59 342 58.57 360.94 41 379 C40.35 379.71 39.7 380.42 39.03 381.16 C26.63 394.37 10.43 399.84 -7.33 400.41 C-26.09 400.62 -43.03 396.34 -56.89 383.09 C-57.59 382.4 -58.28 381.71 -59 381 C-59.89 380.15 -60.77 379.31 -61.69 378.44 C-62.83 377.23 -62.83 377.23 -64 376 C-64.53 375.45 -65.06 374.91 -65.61 374.34 C-82.51 356.13 -82.6 335.26 -82.52 311.79 C-82.52 309.07 -82.53 306.35 -82.54 303.64 C-82.56 297.06 -82.55 290.49 -82.54 283.91 C-82.53 278.56 -82.53 273.21 -82.54 267.86 C-82.54 267.1 -82.54 266.33 -82.54 265.55 C-82.54 263.99 -82.54 262.44 -82.54 260.88 C-82.55 246.35 -82.54 231.82 -82.52 217.29 C-82.5 204.85 -82.5 192.41 -82.52 179.97 C-82.54 165.49 -82.55 151 -82.54 136.51 C-82.54 134.96 -82.54 133.42 -82.54 131.87 C-82.53 131.11 -82.53 130.35 -82.53 129.56 C-82.53 124.22 -82.54 118.89 -82.55 113.55 C-82.56 107.04 -82.55 100.53 -82.53 94.02 C-82.52 90.7 -82.52 87.39 -82.53 84.07 C-82.61 58.48 -82.61 58.48 -78 46 C-77.73 45.26 -77.46 44.52 -77.18 43.76 C-73.86 35.53 -68.85 28.89 -63.04 22.33 C-60.99 20.18 -60.99 20.18 -60 18 C-58.36 16.96 -56.68 15.97 -55 15 C-53.29 13.88 -51.58 12.75 -49.88 11.62 C-36.13 2.92 -16.51 -5.5 0 0 Z " fill="#009EFB" transform="translate(650,88)"/>
<path d="M0 0 C0.33 0 0.66 0 1 0 C1 88.77 1 177.54 1 269 C0.67 269 0.34 269 0 269 C0 180.23 0 91.46 0 0 Z " fill="#000102" transform="translate(711,154)"/>
<path d="" fill="#000102" transform="translate(0,0)"/>
<path d="" fill="#000102" transform="translate(0,0)"/>
<path d="" fill="#000102" transform="translate(0,0)"/>
<path d="" fill="#000102" transform="translate(0,0)"/>
<path d="" fill="#000102" transform="translate(0,0)"/>
<path d="" fill="#000102" transform="translate(0,0)"/>
<path d="" fill="#000102" transform="translate(0,0)"/>
<path d="" fill="#000102" transform="translate(0,0)"/>
<path d="" fill="#000102" transform="translate(0,0)"/>
</svg>
